<?xml version="1.0" encoding="UTF-8"?>
<svg id="a" data-name="Layer 1" xmlns="http://www.w3.org/2000/svg" width="239.9731" height="313.8755" viewBox="0 0 239.9731 313.8755">
  <path d="M139.3433,57.3779c.4502,0,.6006-.2998.6006-.6001.5996,0,1.3496.1504,1.6494.6001l.1504.6001,1.5.1499,1.1992,1.0503-1.7998.4497c0,.75,1.0498.75,1.6504.75.8994,0,2.25-.75,3,.2998-.1504.3003-.6006.6001-.9004.6001-.1504,0-.1504-.4497-.1504-.6001h-.5996l.5996.8999,1.6504.6001c-.4502-.4497-.75-.8999.1504-.8999l.8994.6001-.5996.6001c.4502.2998,1.2002.4497,1.7998.4497.4502.8999.75,2.1001,1.9502,2.1001l.8994,1.0498.75-.4497,1.0498,1.1997,2.7002,1.3501,1.6504,2.6997c0,.4502,0,.8999-.3008,1.3501-.2998-.1499-.75-1.0503-1.3496-1.2002,0,0,0-.75-.1504-.75-.1494,0-.2998.6001-.2998.75,1.3506.8999,2.25,2.3999,3.6006,3.2998,0,.9004.5996,1.9502,1.0498,2.7002-.1504.1499-1.0498,1.1997-.3008,1.1997-.1494.4502,0,1.0503.6006,1.0503-.4502,2.2495-.75,3.8999-.75,6.1494l-.4502.4502c0,.4497-.1494,1.1997-.5996,1.5l-.1504.8999c-1.7998.8999-2.3994,3.75-4.3496,4.6499,0,1.9497-9.2998,7.9497-11.5498,10.1992,0,.3003,0,.6001-.2998.6001-.9004,0-1.5-1.0498-2.25-1.0498-.2998,0-.4502.2998-.4502.6001l-2.25,1.7998h-1.7998c-.5996.2998-1.1992.8999-1.3496,1.5-1.2002.4497-2.5498,1.0498-3.5996,1.9497-.1504-.1499-.6006-.4497-.6006-.75,0-.2998.4502-.2998.6006-.2998.4492-.2998.75-.8999.8994-1.5h1.6504l1.2002-1.0498-.4502-.8999-1.2002.5996c-4.3496.3003-3,2.25-4.3496,2.25h-.6006l-1.7998.75c0,.6001.6006.8999,1.2002.8999h.1504c0-1.1997,2.25.1499,2.6992.4502,0,1.1997-1.3496,1.9497-2.3994,1.9497l-2.4004,1.0503c0,.7495.75.8999,1.3506.8999h.5996c0,.75-.9004.4497-1.3496.2998,0,.1499,0,.6001-.3008.6001-.1494,0-.4492-.4502-.4492-.6001l-.6006-.6001c0,.4502-.5996.4502-.8994.4502,0,.8999-1.7998.4497-1.9502,1.9497-.5996.8999-1.2002,1.8003-1.9502,2.5498l-.8994-1.1997-1.7998-.75c.1494-1.5-2.7002-.75-2.7002-1.6499v-.1499c-1.3496.4497-2.7002,1.0498-3.75,1.7998-1.0498-.1499-3.4502,0-3.5996,1.3501h-1.6504c0,.4497-.4492.5996-.8994.5996h-.2998l.1494.9004c.6006-.75,1.9502-.3003,2.7002-.1504.5996-.2998,1.5-.5996,2.0996-.5996.4502,0,.75,0,.75.4497.1504,0,.6006.1499.6006-.1499s-1.2002-.8999-.1504-.8999l1.6494-1.0498.4502.5996.75-.5996c1.0498.1499,2.8496.2998,3.9004,0-1.7998,1.0498,1.0498.75,1.5,1.3496,0,.6001-1.5.75-1.9502.75.1494.4502-.1504.75-.6006.75-.8994,0-1.3496-.2998-1.9492.6001l-1.5.4497c-.1504.4502-.6006.75-1.0498.75-.1504.3003-.75,1.6499-1.0498,1.6499-.1504,0-.1504-.2998-.1504-.2998,0-.4497,0-.75-.4502-.75-.8994,0-1.7998.4502-2.5498.8999-.4502-.1499-1.0498,0-1.2002.6001l1.3506,1.1997c.8994.1504,2.5498,2.7002,3.1494,3.4502,0,.6001.1504.8999.75.8999.75,0,1.5.2998,2.25.6001,0,.4497.1504.8999.5996,1.0498-.4492.4502-.75,1.0498-.8994,1.6499l1.3496-1.0498,2.0996,2.8496c0,1.3501-.2998,1.5005,1.2002,1.5005,0,.4502.1504,1.0498.6006,1.2002-.3008.1494-1.5.5996-1.5.8994s.4492.2998.5996.2998c0,.1504.1504.4502.2998.4502.4502,0,.4502-.8994.4502-1.0498h1.0498c.2998,0,.6006,0,.6006.4502,0,1.1992-.3008,1.3496,1.0498,1.5,0,1.1992,1.6494,1.1992,1.6494,3.4492.75.6006,1.5,1.3506,2.1006,2.1006v.2998l.8994.5996c.4502-.1494,1.6504.4502,2.0996.6006,0,.4492.1504.8994.6006,1.0498-.4502.4502-.75,1.0498-.9004,1.6494l1.3506-1.0498,2.0996,2.8496c0,1.3506-.2998,1.5,1.2002,1.5,0,.4502.1494,1.0498.5996,1.2002l-1.3496.9004.4492.2998c0,.1494.1504.4502.3008.4502.4492,0,.4492-.9004.4492-1.0508h1.0508c.2998,0,.5996,0,.5996.4502,0,1.2002-.2998,1.3506,1.0498,1.5,0,.9004,1.6504,1.7998,1.6504,2.4004,0,1.9492,1.9492,3.5996,3.5996,4.3496l-.1504,1.6494.9004.9004,1.2002,2.7002-.1504,1.3496.5996,1.3496h.4502c1.0498,0,.2998-1.6494,1.0498-1.6494.1504,0,.1504.2998.1504.2998v.2998c.2998.75,1.0498,1.6504,1.6494,2.1006l-.1494,2.0996.5996,1.7998,1.0498.75c0,2.25,1.2002-.5996,1.2002,3.4502l1.3496,1.5c.6006-.1504,1.2002.1494,1.2002.8994l1.2002,1.2002c0,1.0498.4502,2.0996.9004,3-.1504.5996.1494,1.0498.749,1.1992-.1494.75.4502.4502.4502,1.0508v.1494c.6006.75,1.2002,1.5,1.5,2.4004,0,.75,2.4004,2.25,2.4004,3.5996l.8994,1.2002c-.1494.4492-.1494,1.1992.4502,1.1992.4502.1504.5996.75.5996,1.2002l1.0508,1.0498c-.1504.6006-.4502,1.7998.4492,1.9502.6006.5996,1.3506,1.5,1.3506,2.4004.4492,1.6494,1.3496,3.2998,2.25,4.6494h.2998c0,.1504-1.0498.5996-1.2002.5996-.9004-.8994-1.5-2.3994-1.9502-3.5996.6006-1.3496-1.0498-1.3496-1.9492-1.5-.4502-.4502-.4502-1.2002-.4502-1.6494l-1.2002-1.0508c.1504-1.3496-1.5-1.0498-1.5-2.3994v-.1504c-1.2002,0-1.3496-1.6494-2.7002-1.6494-.1494.1494-.75,1.0498-.75.2998-.4492-.2998-1.0498-.9004-1.0498-1.5v-.1494l-1.0498-.9004-.5996-1.2002c-.4502-.1494-.6006-.75-.6006-1.2002v-.2998l-.4492.1504-.1504-.4502-.5996-.2998c-.2998-1.0498-.75-2.25-1.6504-3.1504,0-.4492-.75-.5996-1.0498-.5996-1.0498-1.3496-2.4004-2.25-3.2998-3.5996-.5996-.1504-1.0498-.75-1.6504-.75,0-.2998,0-.6006-.2998-.6006-.5996,0-.75,0-.75-.5996-.5996,0-.8994.2998-.8994.9004v.2998l-1.3506-.6006c0-.8994-1.3496-.4492-1.3496-1.3496,0-2.3994-1.6504-.4502-1.6504-1.5v-.5996c-.4492-.2998-1.1992-.75-1.7998-.75-.2998,0-.75,0-.8994.2998-.1504,0-1.2002.4502-1.2002.4502,0,.1494.2998.1494.2998.1494.6006,1.9502,2.8496,4.3506,2.8496,6l1.0508,1.2002-.4502,1.0498c-.6006,0-1.2002-1.3496-1.3496-1.7998-.1504,0-3.75-3-4.9502-3.1504-.1504-.1494-2.7002-3.5996-3.5996-3.5996-.1504,0-.3008.2998-.3008.4502l-.749.4502.5996.4502c0,.5996.1494,1.6494.5996,2.0996.4502,0,.6006.4502.6006.8994,0,.1504,0,.9004-.4502.9004-.2998,0-.6006-.4502-.75-.5996-1.2002,0-1.3496-1.8008-2.7002-1.9502l-.2998-1.5c-.5996-.9004-2.5498-2.7002-2.5498-3.75-.4502-.1494-.5996-.75-.5996-1.2002l-1.0508-1.0498c-.2998-.1494-.4492-.4502-.4492-.75,0-1.5-1.2002-.1494-1.2002-1.7998l-.9004-.75v-.75c-.1494-.1494-.75-.2998-.75-.5996s1.0498-.4502,1.3506-.4502l.4492-.5996-.2998-.6006c0-.1494,0-.2998-.1494-.2998-.6006,0-1.6504,1.3496-1.6504-.1504v-.1494l-2.8496-1.7998v.1494l.5996,1.0508c.6006.2998,1.0498,1.0498,1.2002,1.6494-.5996,0-1.0498-.4502-1.3496-.9004l-1.0498-.5996c-1.2002,0-1.3506-1.7998-2.7002-1.9502l-.2998-1.5c-.6006-.8994-2.5498-2.6992-2.5498-3.749-.4502-.1504-.6006-.75-.6006-1.2002l-1.0498-1.0498c-.2998-.1504-.4502-.4502-.4502-.75,0-1.5-1.2002-.1504-1.2002-1.7998l-.8994-.75v-.75c-.1504-.1504-.75-.3008-.75-.6006s1.0498-.4492,1.3496-.4492l.4502-.6006-.2998-.5996c0-.1504,0-.2998-.1504-.2998-.5996,0-1.6494,1.3496-1.6494-.1504v-.1504l-3-1.7998c-.1504-1.0498-2.0996-1.3496-2.0996-2.3994l-2.1006-2.5498c-.8994,0-1.3496-1.6504-1.5-2.4004-.2998-.4502-1.1992-1.9502-1.6494-1.9502s-.1504.75-.4502.75c-.9004,0-4.2002-2.999-4.5-3.5996l-1.6494-.75c-.1504,0-.4502,0-.4502-.2998s.2998-.9004-.2998-.9004c-.2998.4502-1.5.75-1.5.4502s.75-.4502.75-.8999c0-.1499-1.5-.4502-1.7998-.6001-3,.8999-2.1006-.75-4.0498-.75-1.5.6001-3,.75-3,2.5498l-.75-.4497-.4502.4497c-.5996,0-2.8496,5.25-3,5.5498l-.75,1.0508-.5996-.3008c-1.0498,1.0508-1.7998,2.7002-2.4004,3.9004.1504-.1504,1.0498-1.0498,1.0498-.2998,0,.8994-.5996.8994-.75,1.6494-.4492.9004-.8994,1.7998-1.6494,2.4004,0,.5996-.6001.75-.75,1.5l-1.2002,1.1992-.5996,1.3506c-1.2002,1.0498-2.3999,2.0996-3.75,3,0,1.3496-1.7998,1.499-1.7998,2.6992-.3003.4502-1.0503,1.3506-1.5,1.3506-.3003,0-.3003-.4502-.3003-.6006v-.2998c.8999,0,1.6499-2.0996,1.9502-2.8496.1499,0,.4497,0,.4497-.2998,0-.3008-.2998-.75-.5996-.9004.1499-.5996.4497-1.2002.8999-1.6504,0-1.499-1.3501-2.3994-2.7002-2.3994-.5996,0-1.3496.1504-1.3496.9004l-1.2002-.75.4502,1.9492-2.3999,3.9004c0,.75-.6001,1.0498-.6001,1.7998-1.1997-.1504-1.0498,2.0996-2.1001,2.0996-.8999,0-1.6499-.2998-1.6499.9004-.4497.2998-.75.8994-.75,1.5-.1499-.3008-.4497-.75-.75-.75-.2998,0-.2998.4492-.2998.5996-1.1997-.1504-.1499,1.0498-1.1997,1.0498-.1504,1.2002-1.3501,1.6504-1.3501,2.8496l-.6001,1.3506h-1.0498l-.75,1.0498c-.1499.5996,0,2.0996-1.0498,2.0996-1.5,0-.1504,1.2002-1.5,1.2002l-.4502-1.7998,1.9502-2.4004c0-1.6494,1.1997-1.7998,1.1997-3.2998.75,0,.8999-.75.8999-1.3496l-.1499-.9004,1.7998-2.3994.75-2.8496c.4502,0,.6001-.1504.6001-.6006,0-.4492-.2998-1.0498.4502-1.0498-.1504-.4502-.1504-1.3496.5996-1.2002l-.4497-.5996-1.2002,1.7998c0,1.5-.6001,1.6504-1.7998,2.25-.1499.5996-.6001,1.2002-.6001,1.7998-.1499-.2998-.6001-.75-.8999-.75s-.6001,1.3506-.75,1.6504c1.9502.1494-3.2998,3.8994-3.2998,5.0996-1.1997,0-2.3999,5.0996-4.5,5.0996l-1.3496,3c-1.3501-.1504-.75.9004-1.3501.9004h-.1499l-.6001.8994c0,1.2002-1.1997.2998-1.1997,1.2002-1.0503,1.6494-4.5,7.0498-5.8501,7.7998,0,0,0,.2998-.1499.2998,0,0-.2998-1.2002-.2998-1.6504l1.1997-2.6992c.8999-.4502,1.3501-3.4502,2.25-4.2002.4502-1.0498,1.6499-6,2.3999-6.5996.1499-1.0498.8999-1.9502.8999-3.1504l.6001-1.1992c0-.75.6001-.75.6001-1.3506l.5996-1.0498c0-.5996.1504-1.2002.6001-1.6494l1.3501-3.2998c0-.75,1.7998-5.1006,2.0996-5.4004,0-.4502.1504-1.1992.6001-1.5,0-.5996.6001-.8994.6001-1.5l1.0498-.8994c.1499-.9004,1.0503-2.0996,1.5-2.8496.1499-.6006.6001-.9004.75-1.5l.75-1.2002c0-.75.1499-3,1.2002-3,0-.2998,0-1.0498-.4502-1.0498h-.1499l.75-1.5.1499-1.5.4497-.2998s0-.6006.1504-.6006c.2998,0,.4497.4502.5996.6006,1.0503,0,1.0503-1.2002,1.0503-1.9502h-.6001c-.6001,0-4.5.9004-5.25,1.2002l-1.3496-.2998-.1499-.4502c0-.3003,0-.6006.2998-.7505h-1.7998c-1.6499,0-3.1499.4502-4.6499,1.0503-.4502-1.0503-1.6499.2998-2.3999.2998-.1499,0-.3003-.1494-.3003-.2998l-2.6997.9004c-.1499.1494-.2998.2998-.4502.2998-.1499,0-.2998-.1504-.4497-.2998-.75.2998-1.5.4492-2.25.5996v.1504c-.6001,0-1.1997.1494-1.6499.4492-.2998-.2998-.8999-.1494-1.1997,0l-1.3501.1504h-.4502l-3.4497,1.3496c.2998-1.0498-2.3999.6006-2.6997.75-2.7002-1.0498-6.4497,1.3506-9.1499,1.3506.1499-.6006,4.1997-2.1006,4.5-2.25.2998,1.0498,2.0996-.6006,2.6997-.6006,1.2002,0,7.5-1.9492,9.2998-2.5498l-1.0498-.8999-2.25.8999c-.3003,0-.3003-.2998-.75-.1494l-.8999-.3008-.8999,1.0508c-.6001-.4502-1.3501-1.0508-1.3501-1.8008,0-.5996,1.1997-1.0498,1.6499-.5996l.4497-.1504c.3003,0,.6001,0,.75.3003l1.9502-.75h.8999c.8999-1.2002,2.6997-1.6499,4.0498-2.1001.4502.75,1.6499-.8999,2.1001-1.0498l.2998-.8999c1.5-1.5,4.5-2.8501,6.5996-2.6997l1.5-.9004c-.1499,0-1.1997-.4497-1.1997-.5996,0-.3003,2.2495-1.2002,2.5498-1.3501,1.0498.2998,2.3999.1499,3.4497-.1499v-.8999l2.25-.8999c.8999.1499,2.25-.9004,3.2998-.9004,1.3501,0,1.2002-2.2495,2.25-2.2495.4497,0,1.1997.1499,1.1997-.6001.75-.8999,1.6499-1.6499,2.5503-2.25,1.0498.1499,1.0498.4502,1.4995-.4502l2.7002-1.0498c.8999-.8999,2.25-3.1499,2.25-4.5,1.5.4502,2.3999-2.2495,2.5498-3.5996.1499-1.7998,1.3496-.2998,1.3496-1.2002,0-.4497-.2998-.7495-.4497-1.0498,1.1997-.2998,0-3,1.0498-3h.1499c0-.2998,0-.75.3003-.75,2.6997,0,.6001-1.1997,2.0996-1.1997l.1504-2.6997c1.3496-2.8501,1.6499-6.6001,4.4995-8.0996-.75,0-.75-1.2002-.5996-1.6504,1.1997,0,1.1997-1.4995,1.3496-2.3999l1.2002-1.1997c0-1.3501,1.9502-3,2.0996-3.8999.9004-.6001.2998-2.1001,1.0498-2.6997l.6006-.8999c.1494-1.0503.75-1.2002.8994-1.9502.1504,0,.4502,0,.4502-.1499s-.2998-.4502-.4502-.4502c-.5996.4502-1.3496.6001-2.0996.4502l-1.2002-.75.6006-.4502c.4492,0,3.2998.6001,3.2998,0,0-.2998-1.5-.8999-1.8008-1.0498,0,1.9502-3.5996-.6001-4.0498-1.0498l3.1504-.1499v-.6001c.75-.4502,1.5-.75,2.3994-1.0498.1504,0,.4502,0,.4502-.1504,0-.4497-.2998-.75-.5996-.8999-.75,0-.75-.8999-1.7998-.8999l-9.75-.4497.3003-.6001c2.2495.1499,4.6494-.1499,6.8999-.4502l-.6006-.2998c-4.7998.2998-10.1992,0-14.999.6001-6,.8999-13.4995,2.3999-19.7993,2.3999-.1499.75-2.25.8999-2.8501.8999-.4497,0-1.0498-.1499-1.0498-.75l3-1.3501c1.3501.1499,3.2998-.4497,4.7998-.4497.2998,0,1.6499,0,1.6499-.6001-.75-.1499-.75-.75-1.5-.75h-.1499l-1.0498-.4502c1.7998,0,3.5996-.4497,5.2495-.75,0-.75,2.25-.75,2.25-.8999s-.4502-.2998-.6001-.2998c.3003-.3003-.1499-.6001-.4497-.6001-2.5503.1499-5.1001.4502-7.6499.2998,1.2002-.2998,2.3999-.5996,3.6001-.5996.4497,0,2.3999-.1499,2.3999-.3003,0-.4497-.3003-.75-.6001-.8999l-5.8501.1499c0,.3003,0,.6001-.2998.6001s-.4497-.2998-.6001-.4497c-4.3496,0-8.5493,1.1997-13.0493,1.1997l-.6001.6001-11.3994.4497-.4497.6001c-.4502,0-.75,0-.75-.4497,0-.75-.1504-1.5.5996-1.5,1.2002,0,1.3501,0,2.3999-.4502h.75l1.9502-.75c-.1499-1.1997,2.0996-1.1997,2.8496-1.1997h2.25l3.75-1.5c.2998-.3003.75-.3003,1.0498-.3003.8999,0,2.3999-.7495,3.6001-.8999-.1504-.5996.2998-1.3496,1.0498-1.3496,2.25,0,7.9497-.8999,9.8994-1.8003.6001.1504,1.3501.3003,1.9502,0,0-.75,1.5-.75,1.9497-.75h.4502l1.1997-.8999c2.25-.5996,6-.8999,8.25-1.0498.2998-.2998.8999-.6001,1.3496-.6001,2.5498,0,4.7998.1504,7.3496-.1499l1.3501-.8999,1.5-.1499c.75,0,2.1001.6001,2.5498-.3003,1.3501-.5996,3.6001.4502,5.5503-.4497,1.499.4497,2.8496-.3003,4.3496-.3003l8.249-.2998c.9004,0,1.8008,0,2.7002.2998v-.1499c.4502-.5996.4502-1.3496.5996-1.9497l.9004-1.0498c.75-2.8501,2.5498-6.4502,4.6494-8.5498,0-1.0498.6006-1.7998.6006-2.8501.8994-.4497,1.9502-.75,1.9502-1.9497.2998,0,.5996,0,.5996-.4502,0-.4497.1504-.5996.5996-.5996,0-.4502-.1494-1.0503.4502-1.0503h.75l.75-1.0498c0-1.3501,1.0498-3.2998,1.9502-4.3501q-.1504-.8999.75-.8999s.4492,0,.4492-.1499-1.0498-.6001-1.1992-.6001l.5996-1.4995,1.3496-.4502,1.2002-2.3999c.75,0,1.2002-1.9497,1.3506-2.5498l1.3496-2.25c.4502,0,.8994.1499.8994.75,0,.4497-.2998.8999-.5996,1.3501-.1504.4497-.2998,1.0498-.75,1.1997,0,1.0498-.4502,1.0498-.4502,1.6499-.4492.3003-.5996.75-.5996,1.2002v.2998c-.4502,0-.9004.2998-.9004.75v.1499c-.4492.3003-.5996.8999-.5996,1.3501-.4502.1499-.5996.75-.5996,1.1997l-.6006,1.0503-.1494,1.0498-.4502.4502c-.1504,2.0996-.9004,4.3496-2.4004,5.9995l-.75.1499c0,.6001.1504,1.6499-.5996,1.6499h-.75c-.1504.8999-.4502,3.2998-1.2002,4.0498-.2998,0-.5996.4502-.5996.75v.3003c-.4502.4497-.5996,1.0498-.75,1.6499.4502-.1499.75.2998.5996.75,1.5-1.6499,2.1006-6,4.7998-6.2998l.1504,1.6499c-.5996.1499-1.9502.6001-1.9502,1.3501,0,.5996.2998,1.3496.6006,1.9497.2998,0,.2998-1.2002.2998-1.3501.1494-1.5,1.9492-.4497,2.25-4.3496.5996-.1499,1.7998-2.1001,2.25-2.6997.2998,0,.8994.2998.8994.7495v.9004l-.8994.5996c.4492.75.75,1.8003.75,2.7002,0,.4497-.1504.8999-.75.8999,0,1.0498-.6006,1.7998-.75,2.6997-.3008.3003-.6006,1.0503-.6006,1.5,0,.4502.1504,1.0498.6006,1.3501,0,1.6499-1.0508.4497-1.2002,2.0996,0,.6001-.2998,1.2002-.75,1.6499v1.0503l-.5996.5996,3.4492.1504h.1504c.4502-.4502.5996-1.3501.5996-1.9502.2998,0,.6006,0,.6006-.2998,0-.4502.1494-.6001.5996-.6001l1.0498-.8999c.1504,0,.9004,0,.9004-.2998l-.1504-.75c.4502-.1504.75-.6001.75-1.0503,1.0498-.8999,1.6504-4.0498,2.7002-4.0498h.2998c.1494-.4497,1.2002-2.5498,1.2002-3.1499.5996.1504.75-.5996,1.3496-.5996.2998,0,.4502.2998.4502.4497,0,.3003-.2998,1.0503.1494,1.0503.75,0,.9004.5996.75,1.1997.3008,0,.4502-.2998.4502-.4502,0-.5996-.1494-1.0498.5996-1.0498.3008,0,.6006.1499.6006.4502,0,.75-.4502,1.3496-.75,1.9497l-1.0498.6001c0,1.3501-.9004.8999-.9004,3l-.5996.5996-1.2002-.2998c0-1.7998,1.2002.75,1.2002-3,.1494-.1499.75-.4497.75-.75,0-.1499-.4502-.1499-.6006-.1499-.8994.2998-1.6494.8999-2.3994,1.5-.2998.75-.75,4.5-1.6504,4.6499l-1.3496,2.0996-.2998,1.3501,1.3496-.6001.6006-1.1997v-.8999l1.0498.1499v-1.3501c.8994.3003.4492-1.3496,1.1992-1.3496.6006,0,.6006.7495.6006,1.0498,0,.6001-.6006.75-.6006,1.3501,0,.2998-1.0498,3.8994-1.1992,4.3496,1.6494.1499,3.5996.75,4.9492.75-.1494.75,1.0498.75,1.5.75s1.3506,0,1.6504.4497l3.8994.3003.4502.6001h1.5c.2998.2998.5996.5996.8994.5996.3008,0,.3008-.4497.3008-.5996l1.3496.1499.5996-.6001c.9004.75,2.25,1.1997,3.4502,1.3501l1.2002,1.3496c.75,0,1.5.4502,2.25.4502l1.6494,1.1997c0-1.1997.75,0,.9004.3003,1.5,0,2.3994,1.1997,4.0498,1.1997,0,.3003.2998.75.5996.75ZM16.4985,135.5249c.6001-.1494,3.5996-1.3501,3.5996-1.5-1.0498,0-3.5996.1499-3.5996,1.5ZM20.8481,134.3247c0,.1504.1499.1504.1499.1504.1504,0,.3003-.1504.3003-.3003v-.1499l-.4502.2998ZM22.3481,133.5747c0,.1504.1499.1504.2998.1504.1504,0,.3003-.1504.3003-.3003l-.1499-.2998-.4502.4497ZM32.9976,168.0737l.4502-.1504c0-.4492-.2998-.5996-.75-.5996h-.4502c0,.4502.3003.75.75.75ZM37.4976,69.2275l-.2998.6001h-.3003c-.4497,0-1.6499,0-1.6499-.75l2.25.1499ZM37.3477,174.0737c0,.8994-.75,2.0996-1.6499,2.0996-.1499,0-.4502-.1494-.4502-.2998,0-.9004.8999-1.7998,1.5-2.4004.4502,0,.6001.3008.6001.6006ZM35.9976,134.1748c.1499-.1499.1499-.2998,0-.4497-.1499,0,0,.4497,0,.4497ZM38.3975,160.7241c.1499,0,.1499-.1504.1499-.2998,0-.2998-.1499-.2998-.4497-.2998h-.1499c0,.2998.1499.5996.4497.5996ZM39.7476,68.1777c.4497,0,.75.2998.75.75l-1.2002.1499c-.5996,0-1.0498-.1499-1.0498-.75l1.5-.1499ZM40.6475,124.2754l.4502.4497.1499-.2998c-.1499-.1499-.4502-.1499-.6001-.1499ZM41.9976,123.8252c0,.3003.1499.3003.2998.3003h.1499v-.1504c0-.2998-.2998-.2998-.4497-.2998v.1499ZM43.0474,150.6743c0,.6006.4502.75.8999.75l1.2002-2.0996c.4497.1494.4497-.75.4497-1.0498,0,0,0-.6006-.1499-.6006v.4502c-.8999-.1504-2.3999,1.7998-2.3999,2.5498ZM45.8975,150.6743c0,.2998.4497.4502.7495.4502l.6001-1.0498-.75-1.0498c-.1499.5996-.5996,1.0498-.5996,1.6494ZM48.5972,144.2251l-1.9502.4492c0,.6006.6001.75,1.0503.75h.1499c0-.2998.1499-.5996.4502-.5996.2998,0,.5996.2998.75.5996-.1504-.4492-.3003-1.6494.4497-1.6494l.8999-1.7998-1.1997.4502c0,.749-.6001,1.0498-.6001,1.7998ZM47.9971,60.6777c.6001,0,2.25-.4497,2.8501-.5996l2.0996-.4502c.1504,0,.75,0,.75-.1499h-.1499l-6.4497.1499c0,.6001.2998,1.0498.8999,1.0498ZM49.647,141.3745c.1499,0,.3003-.1494.3003-.2998,0-.2998-.3003-.2998-.4502-.2998h-.2998c0,.2998.1499.5996.4497.5996ZM50.9971,140.0249c0,.2998.2998.2998.6001.2998l-.4502-1.0498-.1499.75ZM54.4468,66.2275l-.2998.6001c-.6001,0-1.9502-.1499-1.9502-.8999l2.25.2998ZM53.2471,150.8247c.1499,0,.1499-.1504.1499-.2998l-.6001-.3008c0,.1504.1499.6006.4502.6006ZM55.0469,129.6753c0,.1499,0,.4497.1499.4497.3003,0,.4502-.2998.4502-.6001,0-.1499-.1499-.1499-.1499-.1499l-.4502.1499v.1504ZM56.5469,65.3276c.4497,0,.8999.1499.8999.75v.1499h-1.0498c-.6001,0-1.2002,0-1.2002-.75l1.3501-.1499ZM56.397,148.7241v-1.0498h-1.0503c0,1.0498.1504.9004,1.0503,1.0498ZM57.897,144.2251c0,.4492.2998.5996.5996.5996l.6001-.1504c.6001-1.0498,1.0498-2.249,1.5-3.4492l-.8999-.6006c-.4502.75-1.7998,2.7002-1.7998,3.6006ZM63.4468,144.5249l-3,2.5498v1.0498l1.1997.1504c.75-1.2002,3.3003-3.1504,3.3003-4.5,0-.75-.6001-1.3496-1.2002-1.6504l-.2998,2.4004ZM63.1465,133.875c-.1499,1.3501-.8999.6001-.8999,2.8501,0,.75.6001.75,1.2002.75l.2998-1.6504,1.0498-1.3496-.4497-1.6499c.2998,0,.8999,0,.8999-.4502,0-.2998-.2998-.6001-.6001-.6001-.4502,0-.4502.8999-.4502,1.0503l-1.0498,1.0498ZM63.4468,149.6245q-.6001,0-.75.5996c.2998,0,.5996-.2998.75-.5996ZM64.0464,138.3745c0,1.0508.6001,1.3506,1.6504,1.3506,0-1.0498-.9004-1.6504-1.6504-2.25v.8994ZM64.7964,147.3745h.4502c0-.2998-.2998-.4502-.6001-.4502,0,.1504,0,.4502.1499.4502ZM69.7466,139.8745s0,.3008.1494.3008c.1504,0,.2998-.3008.2998-.4502,0-.1504,0-.2998-.1494-.2998-.1504,0-.1504.1494-.2998.1494v.2998ZM81.4458,103.2764v1.1997l1.0498-.1499,1.2002-1.2002-1.2002-.7495c-.1494.4497-.5996.8999-1.0498.8999ZM87.4458,97.2764l-1.6504-.4497c-.1494.75-.5996,1.1997-.75,1.9497l-1.1992.6001c0,.4497.8994.5996,1.1992.5996.4502,0,1.2002-.1499,1.6504-.2998l.5996-1.7998,1.2002-1.3501c.4502,0,.5996-.6001.5996-.8999l-1.1992.1499c-.4502.3003-.4502,1.0503-.4502,1.5ZM93.7456,85.5767l1.3496-1.4995c0-1.2002,1.2002-1.3501,1.3496-2.7002l-.5996-1.0498c-1.3496,0-1.0498,2.25-2.5498,3.1499,0,2.3999-4.0498,3.2998-4.0498,8.0996-.1504.1499-.6006.6001-.6006.8999,0,.3003.4502.3003.6006.3003l1.2002-1.0503c-.1504-.4497-.1504-1.3501.5996-1.3501l1.0498-1.1997c1.3506.2998,1.3506-.75,2.5498-.75h.2998l-.2998,1.6499c-2.3994,0-.4502,1.3501-1.7998,2.1001,0,.2998.1504,1.3496-.2998,1.3496l-.2998-.1499c-.4502,1.0503-.4502,2.25-1.9502,2.25l-.5996,1.2002c.2998.1499.75.5996.75.8999,0,.2998-.4502.2998-.6006.2998-.1494.4502-.1494,1.7998-.75,1.7998-.5996,0-.8994.1499-.8994.75-.1504.1499-.6006.3003-.6006.6001,0,.1499.4502.2998.6006.2998,1.1992,0,4.5-1.3496,5.5498-1.6499l1.0498-.8999c.4502,0,.8994-.1499,1.0498-.6001.5996-.4497,1.3496-.7495,2.0996-1.0498q1.0498,0,1.0498-1.0498l1.8008.4497.1494-.4497c0-.6001-.5996-.6001.6006-.6001.2998-.2998.75-.2998,1.0498-.2998h.2998l1.0498-.8999,2.25-.3003.1504-1.1997h1.0498c0-.3003.1494-.4502.4492-.4502h.3008c1.0498-.75,3.1494-1.6499,4.5-1.6499l1.499-.8999c.1504-.4502.6006-.6001,1.0508-.6001,0-.75.5996-.8999,1.1992-.75l1.2002-.4497c1.0498.2998.2998-.8999,1.0498-.8999,1.0498,0,3.1504-.3003,3.1504-1.5,0-.3003-.1504-.75.4502-.75l.2998-.4502,1.3496.1499,2.0996-2.8496c-.1494-.3003-.5996-1.7998-.8994-1.7998-.1504,0-.1504.4497-.1504.4497l-1.7998-.2998c0-2.1001-3-.75-3-2.5498v-.3003c-6-.4497-11.0996-2.5498-17.3994-2.5498-.8994,0-1.0498.75-1.0498,1.5-.4502,0-.5996.4497-.5996.8999,0,.6001,0,1.0498-.9004,1.0498h-.2998c-.2998,1.2002-.75,2.25-1.2002,3.2998l-1.3496,1.3501v1.0498l-.4502.9004c-1.5-1.5-1.3496,1.4995-1.3496,2.2495h-2.4004c.4502-.2998.6006-1.0498.6006-1.5ZM88.645,94.8765c0,.1499,0,.4502.3008.4502.1494,0,.2998-.3003.2998-.4502s-.1504-.2998-.2998-.2998l-.3008.1499v.1499ZM91.1958,42.5288c0-.1504,0-.4502-.3008-.4502-.1494,0-.2998.2998-.2998.4502l.6006.1499v-.1499ZM95.9956,76.8774l-.6006,1.0498c0,.2998.2998.75.6006.75.2998,0,.5996-.4502.5996-.75l1.2002-2.3999c.1494-.1499,1.0498-.6001,1.0498-.75s-1.2002-.2998-1.5-.2998c-.1504,1.3496-1.3496,1.3496-1.3496,2.3999ZM98.395,50.0283c0-.4497-.1504-.75-.2998-1.0498-.2998,0-.75,0-.75.4497,0,.4502.2998.75.5996,1.0503.2998,0,.4502-.1504.4502-.4502ZM100.7954,151.2749c-1.2002,0-1.3506-.6006-1.3506-1.6504l1.3506,1.6504ZM104.5444,47.7783h-.4492l.1494.4502h.2998l.1504-.1499c0-.1504,0-.3003-.1504-.3003ZM107.395,123.9751c.1494,0,.1494-.2998.1494-.4497l-.4492-.1499c0,.1499,0,.5996.2998.5996ZM109.7944,36.6787q-.1494,0-.1494.1504v.1499l.5996.1499c0-.1499-.1504-.4502-.4502-.4502ZM110.2446,35.1792l.2998,1.1997.9004-.2998-1.2002-.8999ZM113.394,31.5791c0,.2998,0,.6001-.4492.6001-.2998,0-.75-.3003-1.0498-.6001,0,0-.3008,0-.3008-.1499,0-.3003,1.0508-.8999,1.3506-1.0498-.6006-.3003-1.0498-.75.1494-.75h.2998v1.9497ZM112.7944,28.729c0-.5996.75-.5996,1.0498-.5996s.75,0,.75.2998c0,.4502-.8994,1.0498-1.2002,1.2002-.2998-.3003-.5996-.6001-.5996-.9004ZM117.4438,52.728c0-.8999-1.6494-1.4995-2.3994-1.6499,0,1.6499,1.0498,1.6499,2.3994,1.6499ZM116.5444,106.7261c0,.2998.2998.6001.5996.6001.75,0,1.3506-.75,1.9502-1.2002l-1.0498-.1499-1.5.75ZM125.6938,109.7261c-.4502.1499-.4502-.6001-.4502-.75-.4492,0-4.9492,2.5498-5.0996,2.6997,0,.4502-.5996.6001-.8994.6001l-.6006.6001v.1499c0,.4497.2998.4497.6006.4497.5996,0,1.3496-.2998,1.7998-.5996.8994,0,.8994-1.0503,1.7998-1.0503h.1494c.4502-.75,1.3506-1.1997,2.25-1.1997l.4502-.8999ZM118.644,114.2256c0,.1499,0,.4502.2998.4502.1504,0,.3008-.3003.3008-.4502l-.6006-.1499v.1499ZM120.4438,139.5747h.3008c0-.2998-.3008-.4502-.6006-.4502,0,.1504,0,.4502.2998.4502ZM121.7944,55.2783c.1494,0,.2998-.1504.2998-.4502l-1.0498-.6001c0,.3003.2998,1.0503.75,1.0503ZM123.894,163.1235c0,.3008-.1504.4502-.1504.75,0,.4502.75.3008.9004.3008l.1504-.6006c-.1504-.2998-.4502-.5996-.75-.5996h-.1504v.1494ZM125.9937,52.5781c.1504,0,.3008,0,.3008-.1499,0-.2998-1.6504-.75-2.1006-.75-.1494,0-.2998.1499-.2998.2998.5996.3003,1.3496.6001,2.0996.6001ZM125.2437,111.2261c.3008,0,.4502-.4502.4502-.6001h-.4502v.6001ZM133.0435,98.3262c-.4502,0-1.0498,0-1.3496.4502-.75.6001-2.25,2.25-3.4502,2.25-.1494.2998-.5996.4497-.8994.4497h-.3008l-1.499,1.5.2998-.1499h.1494l2.4004-1.0498c1.0498-.4502,1.9502-.6001,2.8496-1.2002l.75-1.1997c.4502.1499,1.2002.4497,1.2002-.3003l1.9502-1.4995h-.6006v.2998c-.4502-.1499-1.0498,0-1.5.4497ZM128.0942,168.2241c0,.1494.2998,1.1992.4492,1.1992.3008,0,.3008-.8994.3008-1.0498-.9004-.75-1.9502-1.3496-2.7002-2.25l.2998.4502c0,1.2002.4502,1.6504,1.6504,1.6504ZM126.5942,110.3257c.2998,0,.2998-.2998.2998-.4497l-.5996-.1499c0,.1499.1494.5996.2998.5996ZM128.6938,167.9233l1.5,1.0508.75-.9004-.9004-1.3496c-1.0498,0-1.1992.1494-1.3496,1.1992ZM129.2935,109.7261c.1504,0,.4502,0,.6006-.1504l-1.0498-.2998c0,.2998.1494.4502.4492.4502ZM131.2437,174.2231l-.5996-.4492c0-.1504.1494-.75-.1504-.75s-.2998.4492-.2998.5996c0,.2998.1504.5996.4502.5996h.5996ZM131.8442,96.2266c0,.4497.8994.1499,1.0498,0l-1.0498-.1499v.1499ZM132.144,176.9233c.2998,0,.2998-.2998.2998-.4502l-.5996-.1494c0,.1494.1494.5996.2998.5996ZM133.3433,177.8237h.1504c0-.1504-.1504-.3008-.2998-.3008h-.1504c0,.1504.1504.3008.2998.3008ZM133.7935,157.7241h2.1006l-.1504-1.2002-1.0498-.1494h.2998l-.5996-.4502c0,.5996-.6006.4502-.6006,1.7998ZM134.9937,95.0264c.2998,0,.2998-.2998.2998-.4497l-.5996-.1499c0,.1499.1494.5996.2998.5996ZM142.1929,91.7266c-1.1992,0-1.1992,1.0503-2.249,1.0503,0,1.7998-1.3506,1.9497-2.8506,2.2495l-.4502,1.2002-.749.6001c0,.1499.1494.4497.2998.4497.1494,0,.1494-.2998.1494-.4497.9004,0,1.0498-1.0503,1.7998-1.0503h.1504c1.2002-.8999,2.4004-2.25,3.2998-3.4497l1.3496-.6001h-.75ZM136.1938,158.4741c0,.1504,0,.4502.2998.4502.1494,0,.2998-.2998.2998-.4502s-.1504-.2998-.2998-.2998l-.2998.1494v.1504ZM136.6431,93.8267c.1504,0,.3008-.1499.3008-.3003,0-.1499-.1504-.2998-.3008-.2998,0,0-.1494.1499-.2998.1499,0,.1499.1504.4502.2998.4502ZM136.9438,102.6763c.1494,0,.1494-.4502.1494-.6001,0,0,0-.1499-.1494-.1499l-.4502.1499c0,.3003.1494.6001.4502.6001ZM137.6938,103.5762l1.1992.1499c0-.75.6006-.2998.6006-.8999h-1.2002c0,.75-.5996,0-.5996.75ZM139.6431,101.7764c0,.1499,0,.4497.1504.4497s.2998-.2998.2998-.4497l-.4502-.1499v.1499ZM145.7935,96.0767c.1494,1.6499.4492,2.2495-1.3506,2.2495,0,.1504,0,.4502-.1494.4502-.2998,0-.4502-.6001-.4502-.75l-1.0498-1.1997-.75.4497.8994,1.5-.8994.6001-.4502-.75-.4502.6001c-.75,0-1.0498,0-1.0498.8999,0,0,0,.2998.1504.2998.2998,0,.4502-.4502.5996-.6001l1.0498-.2998c0,.75-.5996.75-.5996,1.5l1.3496-.4502c.75.1499,1.6504.4502,1.6504-.6001,1.2002-1.4995,2.6992-2.9995,4.1992-4.1997-.1494,0-.8994-.75-.2998-.75h.1504l3.1494-1.3496c1.2002-1.8003,3-3.3003,4.5-4.7998.2998,0,.4502-.1504.4502-.4502s0-.6001.4502-.6001l1.0498-1.1997c.1494,0,.4502.1499.4502-.1499,0-.1504-.1504-.6001.1494-.6001h.2998c.1504-.1499.3008-.3003.3008-.4502,0-.4497-.4502-.8999-.75-1.1997,0-.1499,0-.3003-.1504-.3003-.5996,0-1.3496,2.5503-1.5,2.7002-.5996,1.0498-1.9502,2.25-3,2.8496-1.2002-.1499-.5996,1.0503-1.5,1.0503-1.5.8999-3.1494,2.9995-4.1992,4.3496-.75,0-1.6504.75-2.25,1.2002ZM145.1929,184.8735l-.75.8994-1.5-1.0498c.1504-1.0498.3008-1.2002,1.3506-1.2002l.8994,1.3506ZM143.0933,171.8237h.4502v-.1504c0-.1494-.1504-.2998-.2998-.2998,0,.1504-.1504.2998-.1504.4502ZM143.8433,91.4268c.2998,0,.2998-.3003.2998-.4502l-.5996-.1499c0,.1499.1494.6001.2998.6001ZM148.4927,173.0239c.4502,0,.9004.2998,1.5.2998l.1504,1.2002h-2.0996c0-.4502,0-1.2002.4492-1.5ZM151.3433,66.2275c0,.1499,0,.3003.2998.3003.1494,0,.4502,0,.5996-.1504v-.1499c0-.1499-.2998-.1499-.4502-.1499h-.4492v.1499ZM155.8423,195.2231c.1504,0,.1504-.1504.1504-.3008,0-.2998-.2998-.2998-.5996-.2998,0,.1504.1494.6006.4492.6006ZM156.2925,71.7773c0,.1499,0,.4502.2998.4502.1504,0,.3008-.3003.3008-.4502l-.6006-.1499v.1499Z" style="fill: #00a79d;"/>
  <path d="M57.5786,237.9761l-1.0498.5996c.1499.75-1.5.75-1.9502.75h-.75c-1.4995.9004-4.6494.9004-6.2993.75l-.9004.5996-6.7495-.1494h-.6001c0-.2998,1.5-.9004,1.7998-1.0498,1.2002,0,6.75.2998,7.9497-.9004l2.3999.1504.75-.75h5.3999ZM177.5737,221.4761c0,.9004.2998,1.9502.5996,2.8506l-1.0498.75-3.1504.75c0-.75,0-1.5-.1494-2.25-.9004.4492-1.9502.75-2.8506.8994l-.1494.6006.2998.8994-1.3496.75-.6006-1.2002.1504-.5996-1.0498,1.2002-1.6504.1494-.2998.3008-1.5.4492-.2998.6006-2.0996.4492-.9004.9004-2.25.75c-.5996.75-2.25,1.3496-3.2998,1.3496l-.5996.6006c-1.5.4492-3,1.1992-4.6504,1.1992-1.1992,1.0508-2.5498,1.5-3.8994,2.25h-1.9502l-1.3496.6006h-.2998s.2998.2998,0,.2998c-.6006,0-1.6504.2998-1.7998,1.0498l-2.1006.2998-.8994.6006-2.5498.4492-.6006.75c-.75.3008-1.6494.6006-2.5498.6006l-.5996.5996c-.4502-.1494-1.6504-.4502-1.6504.2998-1.0498.4502-2.25.6006-3.2998.6006-1.1992.8994-2.5498,1.3496-3.8994,1.9492l-1.9502-.1494c-.8994.5996-2.8496.75-3.8994.75-.6006.4502-1.5.75-2.25.75l-.75-.1504c-.6006.2998-1.0498.75-1.6504.75l-.75.4502c0,.75-1.6494.5996-2.0996.5996l-.4502.4502c-.5996,0-1.5-.4502-1.5.4502l-3,.5996-1.9492,1.2002c-.1499.2998-.75.2998-1.0498.2998l-2.1001.1504-1.2002.5996h-2.0996l-1.7998.75-1.3501-.1494-1.5.5996c-1.7998,0-3,.4502-4.7998.5996,0,.2998-.4497.2998-.6001.2998-.8999,0-1.6499-.1494-2.5498,0-.1499.6006-3,1.0508-3.75,1.0508-3.7495,0-7.6494-.3008-11.3994-.6006,0,.6006-.6001.9004-1.0498.75-.6001.2998-1.3501.4502-1.9502.4502-.4497,0-.75-.1504-.75-.5996,0-.3008.1504-.75-.4497-.75-.2998,0-1.7998.75-1.7998.1494,0-.4502.2998-1.0498.4497-1.3496h2.1001l1.5-.5996c1.6499.1494.6001-1.2002,1.6499-1.2002.8999,0,2.25.4502,3.1499.5996l3.1499-1.2002.1499-.5996,1.0498.1504c.6001-.6006,5.1001-1.0508,6.1499-1.2002.2998-.2998.8999-.2998,1.3501-.2998,0-1.2002,1.0498-.75,1.0498-1.2002-2.25,1.0498-7.3496.5996-8.5498,1.7998-.2998,0-1.0498-.1504-1.3501.1504-.5996-.1504-6.8994.1494-6.8994,1.5-2.8501-.1504-5.3999.8994-8.2495.8994-.3003,1.3496-2.5503.9004-3.4502.75.1499.4502-1.0498.4502-1.1997.4502-.6001,0-1.2002,0-1.3501.5996l-11.0996.6006c0,.1494-.1499.4492-.2998.4492-.4502,0-.8999-.5996-.8999-1.0498,0-.2998.2998-.4502.5996-.4502h2.1001c0-.8994,6-1.3496,7.4995-1.9492.1504,0,1.2002.1494,1.2002-.1504,0-.4502-.75-.8994-.75-1.5,0-.1494.1499-.2998.2998-.4502,2.8501.1504,7.1997-.2998,9.8999-1.6494l1.3496.1504,2.5503-.9004.4497-.75c.8999.1504,1.9502-.1504,2.8501-.2998-.4502.5996.5996.1494.5996,0l-.1499-1.0498c4.0498.5996,2.3999.4492,5.6997-1.0508,1.6504,0,3.6001-1.6494,5.1001-1.6494l.1499-.2998c0-.1504-1.9497-.2998-2.3999-.2998,0,1.3496-3.4497.8994-3.4497,1.6494-.8999,0-1.6499-.2998-2.25.4502-3.8999.1494-3.6001,0-6.75,1.3496l-1.6499-.8994c-1.1997.1494-1.1997,1.1992-2.2495,1.1992-.4502,0-1.5-.4492-1.9502-.5996-1.5-.4502.6001,2.4004-3.8999.9004-.1499.1494-.2998.4492-.6001.4492v-.5996c-1.3496,0-2.5498-.5996-3.8994-.5996l.8999-.75c.4497,0,2.3999-.1504,2.3999-.6006l1.7998.2998c1.6499-.2998,3.5996-.5996,5.0996-1.1992v-.6006c0-.2998-.1499-.75-.5996-.75-.1504-1.0498-1.2002-.1494-1.2002-1.1992h-2.3999l.6001-1.0508c1.3501,0-.75-1.0498,2.3999-1.0498l.75-.5996c.6001-.1504,1.1997-.1504,1.7998-.4502,1.2002.1504,1.2002-.8994,1.9497-.8994,2.1001,0,4.3501-1.8008,6.8999-1.8008v-.5996c.3003,0,2.5498,0,2.5498-.5996.1499,0,1.0503.1494,1.0503-.2998h1.3496l.4502-.4502h1.1997l.1504-.4502c1.0498-.1504.1499-1.2002,1.1997-1.2002.75-.75,2.6997-.8994,3.6001-1.2002.5996.1504,1.0498.3008,1.4995.75l1.2002-.75c-.1499-.4492.1499-.5996.6001-.5996l.4497.1504c0-.1504,0-1.0498.4502-1.0498.1499,0,.2998.4492.4497.5996,1.3501.1504,2.3999-.75,3.75-.75.4502-.9004,1.9497-.5996,2.6997-.5996v-.4502c.3003,0,1.0503,0,1.0503-.4502.75,0,1.1997-.4502,1.6499-.4502h.2998l1.5-.75.4502-.5996c.5996,0,1.0498-.4502,1.6499-.5996.4497-.4502,1.1997-.6006,1.7998-.75l.8999.1494.4502-.1494.2993-.6006,1.0498.1504v-.4502l1.0508-.4502c0-.2998.1494-.5996.2998-.5996.1494,0,.2998.1494.2998.1494,2.3994-1.0498,6.1494-2.5498,7.5-2.5498v-.4492c3.5996-.9004,6.4492-3.1504,10.0488-3.9004l.9004.2998.5996-.2998.3008-.5996,1.3496.1494,1.6494-1.3496c.9004-.2998,3.2998-.2998,3-1.3496l.9004.1494.75-.1494.75-1.2002c.5996-.4502,1.6494.4502,2.3994.4502l.1504-.4502c1.0498-.75,2.25-1.2002,3.4502-1.5.8994-.75,2.249-.9004,3.2998-1.3496l.4492-.6006h1.3496c.75-.5996,1.5-1.0498,2.4004-1.2002v-.5996l3.2998-.4502,1.3496-1.1992h.75l.3008-.6006,1.3496-.1494.75-1.2002c1.9502-.4502,4.0498-1.2002,5.3994-2.8496,1.0498-.3008,2.1006-.75,3-1.3506v-.2998c.9004-.2998,1.7998-.9004,2.4004-1.6494.5996.1494,2.999-.75,3.5996-1.2002l.75-1.0498c.8994-.3008,1.9502-1.2002,2.5498-1.9502l.2998-1.5,1.5-.75.9004.1504,1.0498-1.3506h.2998c.4502-1.3496,2.3994-3.8994,3.2998-4.9492h1.3496l1.0508-1.2002c0-.4502.1494-.9004.1494-1.2002l.2998-.1494c-.4492-1.5-1.5-2.7002-2.0996-4.0498-1.2002-.3008-2.25-.9004-3.4502-1.0508-3.8994-2.25-8.0996-3.4492-11.6992-6.1494h-1.5c-.4502-.2998-1.0498-.4502-1.6494-.5996l-.75-1.0508h-.1504l-1.0498-.8994.75-.9004c.5996.1504,1.3496.4502,1.7998.9004h2.25l.75-1.3496-1.0498-.4502-2.5498.1494c-1.0508-1.0498-2.1006-2.25-3-3.4492l-1.6504-.4502c-1.7998-1.7998-3.8994-1.6504-6.1494-2.25l-.2998-.5996-.3008.5996,1.3506.5996,1.0498,1.2002h.4502l1.1992.4502,1.5-.1504,1.3506,1.3506,1.5-.1504.1494,1.5v.1504l-1.5-.4502-.2998,1.5-.4502.2998c-.75-.1504-3.1494-1.2002-3.5996-1.0498l-.5996-1.2002h-1.0498c-1.2002-.4502-2.25-1.3496-3.3008-1.9502.4502-.4492,1.2002-.8994,1.5-1.5-1.1992-.5996-2.5498-.5996-3.8994-.8994-.2998,0-.9004.1494-1.2002.2998-.5996-.4502-1.499-1.3496-2.0996-1.5l-.8994-1.0498-1.0508.75-1.1992-1.3496.1494-1.2002c-.4492-1.0498-1.0498-2.0996-1.7998-3v-.2998l-.4502,1.3496,1.2002,1.0498v1.3506c-.8994-1.2002-2.25-1.9502-3.2998-3.1504-.4502-.75-.75-2.0996-.5996-3l-1.2002-.4502c-.1504-1.0498-.5996-2.0996-1.2002-2.999l-.1494-1.5c.1494-.3008-.6006-.3008-.75-.3008v-1.1992c.75-1.5,1.9492-3.1504,1.6494-4.9502l.75-1.3501c-.1494-.2998.4502-1.5.6006-1.7998l1.499-.6001h.1504l-.2998-.75.8994-.6001.4502-1.0498c.75-.4497,1.6504-1.0498,2.25-1.7998l.5996-1.7998,2.7002-1.2002c.75-1.1997,1.7998-3.1499,3.5996-3.1499,1.2002-1.6499,2.8496-2.3999,4.6504-3.1499l-.1504-.1499c2.25-1.3501,4.6494-2.8496,6.8994-4.0498l1.6504-.1499,1.3496-.8999c.2998.1499,1.6504-.4502,1.9502-.6001l.75-.75c4.7998-.8999,7.1992-2.1001,11.5498-4.1997h2.0996l1.3496-1.0503c.75.1504,1.6504-.1499,2.4004-.4497l1.6494.2998,1.0498-.75.75.75c.75,0,2.8506-1.1997,4.0498-1.3496,8.7002-1.5,17.8496-1.3501,26.6992-2.25l.1504.4497c3-.4497,5.999-.2998,8.999-.75l7.9502.75c2.0996,0,4.0498-.1499,6,0l-.6006.8999c-.75,0-1.6494-.1499-2.25.4502-3.2998.1499-5.999-.1499-8.999,1.5l-1.6504-.2998v.8999l-.75.4497-.75-.75c-.75.3003-1.6494.75-2.25,1.3501h-.75l-1.1992,1.0498.1494,1.5h1.6504v.4502l1.0498.5996-1.3496.9004h-1.6504c-1.3496,0-2.5498.2998-3.8994.2998l-.1504.8999.75.4502c.75-.1504,1.7998-.1504,2.5498-.1504l-.9004,1.0503c-.75.2998-1.6494.4497-2.5498.2998l-1.5.75.4502.4502c2.25-.1504,4.6504-.8999,6.9004-.3003.5996.4502,1.3496.8999,1.7998,1.5l1.5-.2998.8994.8999-1.0498,1.1997.1504.6001c.75,0,1.499-.1499,2.249-.2998l1.5.4497-1.0498.6001c-.5996.1499-1.3496.2998-1.9492.2998-2.4004,0-4.2002.9004-6.4502.9004-.2998.4497-1.2002.5996-1.5,1.0498l.75-.3003,1.3496.6001h.1504l-1.0498.6001c-1.6504.2998-3.5996.4502-5.4004.4502-2.3994,0-5.0996,2.3999-7.499,2.3999h-.4502l-1.3496.8999-1.9502.2998-.5996.6001-1.6504-.1499-1.2002.4497c-1.5,0-3.1494.6001-4.6494.6001-.6006,0-1.3496-.1499-1.9502-.2998l-3.1494,1.7998-1.0508-.6001-.5996.75.4502.75c-.9004,0-1.9502,0-2.8496.1499l-.9004-.8999v.75l.4502.8999c-.75.2998-1.5.6001-2.4004.6001l-1.5.6001c-.8994-.1504-1.6494-.1504-2.5498-.1504-.75,1.2002-2.0996,1.3501-3.4492,1.3501l-.75,1.5005.5996,1.3496c1.5.5996,2.7002.9004,4.2002.9004l.4492.5996c.75.4502,1.6504.9004,2.5508,1.2002l1.0498,1.3496,1.0498-1.2002v-.1494l1.2002.5996.2998,1.5,2.6992.9004,1.5-.4502,1.3506.5996-.1504,1.0498,1.3506.6006h.1494l1.2002,1.0498v.1494l1.0498-1.1992h.2998l.9004,1.0498.1494.5996c1.3506,1.3506,1.9502,1.2002,3.75,1.3506,0,.4492,0,.8994.1504,1.1992l.8994.6006h1.6504l.5996,1.5c.6006,0,1.2002.1494,1.7998.1494l.9004,1.5v.1504l1.6494-.1504c.3008.75.9004,1.6504,1.5,2.25l1.6504.75c2.3994,2.4004,7.3496,4.6494,7.9492,7.9502h.1504l.4502.8994.1494-.4502,1.6504.75.2998,1.6504-.4502,1.5-1.1992.2998,1.3496,1.5c.1504,1.3496-.2998,3.2998,1.2002,4.0498l-.2998,1.2002c.749.8994,1.499,1.9492,1.9492,3l-1.0498,1.0498c.1504.5996.2998,1.9492-.5996,2.0996l.75.9004c-1.5,2.249-1.5,4.499-3.1504,6.749l.4502,1.3506c-1.0498,3.1494-1.7998,4.7998-3.2998,7.7998l-.5996.4492c-.6006-.2998-1.2002-.5996-1.8008-1.0498l-.75,1.3496c-.4492.3008-1.6494,1.5-2.0996,1.5-.2998,0-.4502,0-.5996-.2998v1.2002l.5996.4502c.9004-.6006,1.6504-1.6504,2.8496-1.6504.3008,0,.6006.1504.75.4502l-3.4492,2.8496c-4.0498-.5996-2.8506,0-6.1504,1.3506l-.8994-.3008.5996-1.0498-.4502-.5996-2.3994,1.6494-.2998,2.1006,1.7998-.75v.2998c0,.4502-.1504,1.5-.9004,1.5-.4492,0-1.0498-.2998-1.3496-.4502v1.2002h-1.0498l-1.3506.8994-1.5.3008-2.5498,2.5498.6006,1.0498,2.3994.5996-1.5.6006c-.75-.1504-1.5-.1504-2.0996-.4502l-.9004.5996-1.0498-1.0498c-.75.5996-1.5,1.6504-1.7998,2.5498l-.8994-.5996c-1.0508.4502-2.4004.75-3.6006.75l-.4492,1.0498-1.8008,1.3496.75.6006-1.3496,1.3496-1.9502-.4502c-.8994.4502-1.7998.9004-2.6992,1.2002l.4492-.5996-.5996-1.5c.5996-.6006,1.3496-1.0508,2.25-1.0508l1.6504-1.3496,2.249-.4502c.4502-.75,1.8008-2.25,2.7002-2.5498l-.4502-1.1992-1.6494.5996-1.2002,1.2002.1504.1494c-1.0498,0-2.25,0-3.2998.1504l1.3496.2998-1.0498,1.3496c-1.3506.4502-2.7002,1.0508-4.0498,1.3506l-1.0498,1.1992c-1.0508,0-1.9502.4502-2.4004,1.5l1.2002.4502c.5996-.4502,1.2002-1.0498,1.9502-1.3496l1.7998,1.7998c-.6006.2998-1.2002.4502-1.7998.5996ZM49.479,243.3755c0,.2998-.1499.4502-.4502.4502-.2998,0-.7495-.2998-.7495-.6006,0-.1494.2998-.1494.2998-.1494l.8999.2998ZM49.9292,243.3755l.8999-.5996c-.1504.2998-.4502.5996-.8999.5996ZM51.5791,242.7759h-.75c.2998-.1504.5996-.1504.75,0ZM59.0786,248.4751c.2998,0,.8999-.1494.8999-.5996h-1.7998l.8999.5996ZM66.4282,236.6255v.1504c-1.6499-.1504-2.0996.75-3.2998.75-.1499,0-1.5,0-1.5.2998,0,.1504.75.1504.75.1504h2.25l1.0498-.4502c.4502,0,1.0503-.2998,1.0503-.9004h-.3003ZM64.1782,239.6255c.3003,0,.6001,0,.6001-.2998l-1.5-.2998c0,.4502.4502.5996.8999.5996ZM66.1284,252.2251c.6001,0,4.7998,0,4.9497-1.0498h-2.5498c-.1499,1.2002-2.25,0-2.3999,1.0498ZM69.2783,236.4761c.2998,0,.2998-.2998.2998-.4502l-.6001-.1504c0,.1504.1504.4502.3003.6006ZM69.2783,239.0259c0,.2998,1.0498.5996,1.0498-.1504-.1499,0-1.0498-.1494-1.0498.1504ZM72.4282,238.1255c-.3003,0-.6001.1504-.75.4502l.75-.4502ZM71.6782,250.8755c0,.2998,1.1997-.1504,1.5-.1504h-1.5v.1504ZM88.6274,237.2261c0-.1504-.2998-.6006-.4502-.4502l-1.3496.75h.1499c.6001,0-.2998.2998-.4502.2998-3.4497,0-1.9497,1.0498-3.4497,1.2002l-1.1997.75c2.6997-.2998,2.6997-1.2002,5.8496-1.2002.1499-.2998.4497-.4502.75-.4502h.4497l1.0503-.1494.2998-.75-.1499-.9004h-.4502l-1.0498.9004ZM89.8271,242.6255v.1504c0,.1494.1504.4492.3003.4492.2998,0,.6001-.1494.6001-.4492l-.1504-.1504h-.75ZM93.7271,237.2261c0-.1504-.2998-1.5,0-1.5.3003,0,.6001.2998.75.4502l.1499.5996c.75-.9004,1.5-.9004,2.25-1.6504.6001-.2998,1.2002-.75,1.7998-1.1992l-.1499-.1504-2.0996.9004c-.3003,0-.8999,0-1.0503.4492-.8999.1504-1.5,0-2.0996.75-.6001.1504-1.3501.3008-1.9502.3008l.3003,1.0498,1.6499.1494.4497-.1494ZM93.877,241.4253c-.2998.2998-.8999.4502-1.3496.6006l-.1499.2998c0,.4502.5996.4502.8999.4502l1.1997-.9004-.6001-.4502ZM99.7271,233.4761l.2998.2998c.1499,0,.3003-.1504.3003-.2998h-.6001ZM103.9268,231.5259c0-.2998,0-.4502.1499-.75-.8999.4502-1.7998.9004-2.6997,1.5.8999-.1504,1.7998-.4502,2.5498-.75ZM119.8257,226.1265h.1504v.1494h.1494c.1504,0,.3008-.1494.3008-.2998v-.1494l-.3008.1494.1504-.1494-.2998-.1504-.1504.1504.1504.1494h-.1504v.1504ZM120.1255,225.9761h-.1494v.1504c0-.1504.1494-.1504.1494-.1504ZM127.9253,223.8765l.2998-.75c-.5996.2998-1.3496.1494-1.6494.8994.4502-.1494.8994-.1494,1.3496-.1494ZM135.1255,142.2798l.2998,1.5.75-.9004-.9004-1.3496v-1.7998c.4502-.4502.75-.9004.75-1.5v-.2998l-1.5.5996c.1504.5996-.1494,1.5-.2998,2.0996l.4502,1.5.4502.1504ZM137.8247,138.8296l.9004,1.0498.2998-1.0498h-1.2002ZM138.7251,141.23l-.1504,1.5.6006.75.2998-1.6504-.75-.5996ZM138.5747,218.4761l.4502,2.25h.1504l1.6494,1.2002.75-.75-1.5-.4502.4502-1.0498c.75-.5996,1.6504-1.0498,2.25-1.7998l-2.3994.1504-1.2002,1.0498-.6006-.6006ZM139.7749,143.9292l.2998,1.6504-.2998,1.2002,1.0498-1.7998v-1.0508h-1.0498ZM141.8745,146.7798l-.4492,1.1992c.8994.1504,1.9492.6006,2.6992,1.2002l-.4492-1.2002-.75-.5996v-1.0498l-1.0508-1.2002v1.6504ZM151.4741,155.0288l-.5996-.5996-.4502-1.2002-1.2002.2998c-.5996-.5996-1.0498-1.3496-1.9492-1.3496l-.6006-.9004c-.5996-.1494-1.0498-.2998-1.6494-.2998h-.75l-1.2002,1.0498,1.0498,1.0508.9004-.75c.5996.4492,1.5.8994,2.25,1.1992.8994.9004,1.9492,1.6504,3.1494,1.6504.4502,0,.75,0,1.0498-.1504ZM145.3247,147.979c0,1.2002.8994,2.1006,2.0996,2.1006-.1494-.4502-.1494-1.2002-.4502-1.6504l-1.6494-.4502ZM148.1743,214.4263l-.4502,1.5.4502.3008.9004-.6006h.8994l-.2998-1.2002-.75.6006-.75-.6006ZM152.9741,228.8257l.6006.4502.5996-.5996c1.0498-.2998,1.9502-.75,2.8496-1.2002h.1504l1.5-.5996c-2.25,0-3.5996,1.3496-5.7002,1.9492ZM153.8745,153.0796l1.5.4492.1494-.2998-1.5-.1494h-.1494ZM166.9233,161.1792v-.6006l-1.0498-.1494c-.75-.4502-1.5-.9004-2.0996-1.6504l-.1504,1.0498c0,1.2002,1.3506,1.6504,2.25,2.1006l1.0498-.75ZM168.4233,222.3765l3.2998-1.2002c-1.0498.1504-2.6992.1504-3.2998,1.2002ZM171.8735,135.0796v.1504l1.3496,2.3994v-2.249l-1.3496-.3008ZM177.5737,167.3286l1.499.1504v.2998l1.5.4502,1.6504,1.3496-.4502-1.6504c-1.3496-.8994-2.8496-1.1992-4.1992-2.0996v1.5ZM183.4233,220.1265l-.4502,1.0498c-.75.6006-1.6504,1.0498-2.5498,1.3496l-1.0498-.5996c.8994-.4502,1.7998-.75,2.25-1.6494l1.7998-.1504ZM184.3228,173.9282c-.2998-1.0498-1.0498-1.9502-1.9492-2.7002l-.6006.75c.2998.75,3.4502,4.5,4.5,4.9502l.5996-.2998c-.5996-1.3506-1.5-1.7998-2.5498-2.7002ZM190.3228,212.1772v1.0498l1.0498-.3008-1.0498-.749ZM192.5728,210.2271l-.5996,1.5c1.0498,0,2.0996-.2998,2.8496-1.2002.5996-.2998,1.5-.9004,1.6494-1.6504l1.3506-1.9492c1.3496-.4502,2.3994-1.3506,3.75-1.7998l.8994-1.2002-1.0498-.75-1.3496.4502-.6006,1.6494h-1.2002c-1.7998.75-2.8496,2.1006-5.0996,2.8496l-.1494.6006c0,.4502.2998.75.75.8994l-1.2002.6006ZM195.5728,117.3804l-.2998.75c2.25-.2998,4.7998.2998,6.749-1.2002-2.0996,0-4.3496.3003-6.4492.4502ZM201.272,209.1772l-.1494,1.6494c-.75.2998-1.5.6006-2.4004.75.75-.8994,1.6504-1.6494,2.5498-2.3994ZM204.7222,117.8306h.1504l.2998-1.0503-1.3506.75.9004.3003ZM215.0718,188.3276l-.4502-.5996-.1494.5996c-2.4004,1.6504-2.7002,4.9502-5.1006,6.5996l1.3506,1.0498c-1.2002.3008-2.4004.4502-3.5996,1.0508l-.3008,1.499,3.1504-.5996.1494-.4502.6006-.2998.5996-.8994c.9004-.6006,1.5-1.3506,1.6504-2.4004l3.4492-2.0996.6006-1.0498-.6006-.75-.2998-1.2002,1.3496-1.7998-.2998-2.1006-1.0498.4502c.2998.75.6006,1.5.75,2.4004l-1.7998.5996ZM212.522,114.3804c-1.6504,0-3.1504.6001-4.7998.6001l-.2998.6001c.1494.1499.5996,0,.5996-.3003l1.6504-.1499h.1494l-.1494.3003c1.1992,0,2.5498,0,3.4492-1.0503h-.5996ZM217.6216,116.6304c.4502,0,1.0498.1499,1.6504.1499l-1.5-.2998-.1504.1499ZM222.5718,177.5278c-.1504,0-.1504-.1494-.2998-.1494.1494,0,.1494.1494.2998.1494ZM223.1714,169.8784c.5996.5996,1.3496,1.5,1.3496,2.4004l-1.1992-.4502-.1504-1.9502ZM224.8218,180.228c.1494,1.0498.4492,2.0996.4492,3.2998,0,.5996-.1494,1.3496-.5996,1.9502-.4502-.75-.9004-1.5-.9004-2.4004l1.0508-2.8496Z" style="fill: #f7941d;"/>
</svg>